HIERARCHY
ROOT Hips
{
	OFFSET 0.000000 0.000000 0.000000
	CHANNELS 6 Xposition Yposition Zposition Xrotation Yrotation Zrotation
	JOINT LeftUpLeg_virtual
	{
		OFFSET 0.000000 0.000000 0.000000
		CHANNELS 3 Xrotation Yrotation Zrotation
		JOINT LeftUpLeg
		{
			OFFSET 10.205400 -3.823500 0.155100
			CHANNELS 3 Xrotation Yrotation Zrotation
			JOINT LeftLeg
			{
				OFFSET 0.708757 -12.982077 0.567790
				CHANNELS 3 Xrotation Yrotation Zrotation
				JOINT LeftFoot
				{
					OFFSET -0.708756 -10.717838 -2.184338
					CHANNELS 3 Xrotation Yrotation Zrotation
					JOINT LeftToeBase
					{
						OFFSET 0.108149 -7.191104 7.560241
						CHANNELS 3 Xrotation Yrotation Zrotation
						JOINT LeftToe_End
						{
							OFFSET 0.070230 0.081724 4.490308
							CHANNELS 3 Xrotation Yrotation Zrotation
							End Site
							{
								OFFSET 0 0 0
							}
						}
					}
				}
			}
		}
	}
	JOINT RightUpLeg_virtual
	{
		OFFSET 0.000000 0.000000 0.000000
		CHANNELS 3 Xrotation Yrotation Zrotation
		JOINT RightUpLeg
		{
			OFFSET -10.205400 -3.823500 0.005500
			CHANNELS 3 Xrotation Yrotation Zrotation
			JOINT RightLeg
			{
				OFFSET -0.708756 -12.982134 0.610632
				CHANNELS 3 Xrotation Yrotation Zrotation
				JOINT RightFoot
				{
					OFFSET 0.708754 -10.717769 -1.945823
					CHANNELS 3 Xrotation Yrotation Zrotation
					JOINT RightToeBase
					{
						OFFSET -0.108140 -7.191069 7.372968
						CHANNELS 3 Xrotation Yrotation Zrotation
						JOINT RightToe_End
						{
							OFFSET -0.070227 0.081735 4.479403
							CHANNELS 3 Xrotation Yrotation Zrotation
							End Site
							{
								OFFSET 0 0 0
							}
						}
					}
				}
			}
		}
	}
	JOINT Spine_virtual
	{
		OFFSET 0.000000 0.000000 0.000000
		CHANNELS 3 Xrotation Yrotation Zrotation
		JOINT Spine
		{
			OFFSET 0.000000 6.876099 0.125700
			CHANNELS 3 Xrotation Yrotation Zrotation
			JOINT Spine1
			{
				OFFSET 0.000000 5.730043 0.104720
				CHANNELS 3 Xrotation Yrotation Zrotation
				JOINT Spine1_split
				{
					OFFSET 0.000000 5.730043 0.104720
					CHANNELS 3 Xrotation Yrotation Zrotation
					JOINT Spine2
					{
						OFFSET 0.000000 5.730043 0.104720
						CHANNELS 3 Xrotation Yrotation Zrotation
						JOINT Neck_virtual
						{
							OFFSET 0.000000 0.000000 0.000000
							CHANNELS 3 Xrotation Yrotation Zrotation
							JOINT Neck
							{
								OFFSET 0.000000 10.314075 0.188496
								CHANNELS 3 Xrotation Yrotation Zrotation
								JOINT Head
								{
									OFFSET 0.000000 7.643700 -2.377400
									CHANNELS 3 Xrotation Yrotation Zrotation
									JOINT HeadTop_End
									{
										OFFSET 0.000000 43.788605 -13.619600
										CHANNELS 3 Xrotation Yrotation Zrotation
										End Site
										{
											OFFSET 0 0 0
										}
									}
								}
							}
						}
						JOINT LeftShoulder_virtual
						{
							OFFSET 0.000000 0.000000 0.000000
							CHANNELS 3 Xrotation Yrotation Zrotation
							JOINT LeftShoulder
							{
								OFFSET 2.196100 4.412489 0.087492
								CHANNELS 3 Xrotation Yrotation Zrotation
								JOINT LeftShoulder_split
								{
									OFFSET 2.196100 4.412489 0.087492
									CHANNELS 3 Xrotation Yrotation Zrotation
									JOINT LeftArm
									{
										OFFSET 8.771219 -2.981674 -0.026999
										CHANNELS 3 Xrotation Yrotation Zrotation
										JOINT LeftForeArm
										{
											OFFSET 8.512804 0.000000 -0.000000
											CHANNELS 3 Xrotation Yrotation Zrotation
											JOINT LeftHand
											{
												OFFSET 18.484802 0.000000 -0.000000
												CHANNELS 3 Xrotation Yrotation Zrotation
												End Site
												{
													OFFSET 0 0 0
												}
											}
										}
									}
								}
							}
						}
						JOINT RightShoulder_virtual
						{
							OFFSET 0.000000 0.000000 0.000000
							CHANNELS 3 Xrotation Yrotation Zrotation
							JOINT RightShoulder
							{
								OFFSET -2.196100 4.412496 0.070690
								CHANNELS 3 Xrotation Yrotation Zrotation
								JOINT RightShoulder_split
								{
									OFFSET -2.196100 4.412496 0.070690
									CHANNELS 3 Xrotation Yrotation Zrotation
									JOINT RightArm
									{
										OFFSET -8.771282 -2.981682 -0.094208
										CHANNELS 3 Xrotation Yrotation Zrotation
										JOINT RightForeArm
										{
											OFFSET -8.494598 0.000000 0.000000
											CHANNELS 3 Xrotation Yrotation Zrotation
											JOINT RightHand
											{
												OFFSET -18.483803 0.000000 0.000001
												CHANNELS 3 Xrotation Yrotation Zrotation
												End Site
												{
													OFFSET 0 0 0
												}
											}
										}
									}
								}
							}
						}
					}
				}
			}
		}
	}
}
MOTION
Frames: 6
Frame Time: 0.03333333
10.413317 37.493980 -6.569771 0.000000 0.000000 0.000000 -1.544796 -4.761541 4.573123 -38.839051 0.038317 23.701463 71.263120 -8.707703 -37.712169 35.885927 -0.585460 48.443154 15.171752 1.260439 -1.301848 0.000000 0.000000 0.000000 -9.542059 -8.227534 5.685034 22.406038 -21.628651 -9.695690 15.033450 10.370062 -8.795816 30.434326 -20.239048 19.038399 21.328852 -7.658085 -9.005820 0.000000 0.000000 0.000000 2.719119 -5.208049 5.404749 21.629966 -0.654770 -5.436174 6.606950 -2.654468 2.090988 0.128417 0.689659 -0.153569 0.000000 0.000000 0.000000 5.478237 -1.228402 5.392772 -18.898959 -15.156226 13.917029 -58.695190 -80.483821 -55.996346 0.000000 0.000000 0.000000 -2.356049 -1.048725 -0.386456 4.527540 -8.021851 9.727987 2.998864 -0.142589 -2.546407 33.153397 26.752763 -77.424989 168.597960 -52.674723 150.452552 0.000000 0.000000 0.000000 6.771389 -1.528003 0.526517 5.661007 -1.462106 -1.547195 -28.720266 6.536807 12.854373 7.070764 -12.333617 48.292924 -125.609720 63.721710 131.103309 0.000000 0.000000 0.000000 
9.422957 37.082912 0.760256 0.000000 0.000000 0.000000 -2.956810 -11.436312 5.176382 -42.509929 6.084450 23.514526 58.214071 4.722512 -39.576927 29.984933 2.207874 53.544718 16.355486 1.742956 -1.685147 0.000000 0.000000 0.000000 -9.231426 -15.023397 6.270322 26.821012 -21.948809 -7.730957 12.043523 7.762138 -7.864672 30.998195 -20.910810 14.576577 23.214310 -6.424276 -7.441927 0.000000 0.000000 0.000000 2.292778 -7.179779 6.188291 21.361217 -0.120484 -6.113617 6.208429 -2.925056 1.609143 0.162421 0.512771 -0.209371 0.000000 0.000000 0.000000 5.532839 -1.140871 4.909642 -18.821075 -14.735213 13.589902 -57.334056 -78.503899 -52.886995 0.000000 0.000000 0.000000 -2.412565 -0.899276 -0.940084 4.778126 -6.723992 10.266347 1.208984 3.689199 -1.519245 38.832812 30.334653 -77.031481 163.773839 -59.893710 145.911310 0.000000 0.000000 0.000000 6.166706 -1.688070 0.000360 5.222109 -0.855190 -3.955956 -32.037620 3.131231 3.429233 4.562402 -7.122094 45.740271 -141.010826 58.530268 145.313941 0.000000 0.000000 0.000000 
8.799149 35.900829 9.658243 0.000000 0.000000 0.000000 -4.031540 -20.198763 7.900393 -42.649976 10.666526 20.914154 40.631119 19.465771 -33.120110 27.568049 3.907823 51.626664 15.004544 2.512696 0.540659 0.000000 0.000000 0.000000 -9.693285 -24.161500 8.239664 30.162607 -22.602554 -6.723188 14.325821 5.087041 -5.915027 39.505719 -16.839451 13.976375 14.241291 -4.617972 -7.171541 0.000000 0.000000 0.000000 0.661460 -11.700292 8.865761 20.878290 0.885013 -7.279832 5.709843 -3.183373 0.045005 0.135993 0.163829 -0.212354 0.000000 0.000000 0.000000 5.805571 -1.020095 3.194888 -18.910081 -13.395792 12.769898 -52.204447 -75.676884 -44.931136 0.000000 0.000000 0.000000 -2.313169 -0.673806 -2.696102 4.491504 -4.403003 9.865671 -1.205452 4.515084 1.007911 44.431535 35.162097 -75.659918 144.804942 -71.201758 126.927550 0.000000 0.000000 0.000000 5.442051 -1.724857 -1.530532 4.792293 -0.301233 -8.651934 -33.281924 -1.339544 -0.791901 5.987774 -3.147151 43.698837 -154.910439 51.801193 157.984174 0.000000 0.000000 0.000000 
8.972908 33.701485 18.977060 0.000000 0.000000 0.000000 -4.342158 -30.562754 12.194294 -42.351155 12.007343 16.259023 24.256693 27.516653 -19.829612 31.770386 4.910487 41.727784 12.265827 3.364469 4.955040 0.000000 0.000000 0.000000 -9.042493 -33.475454 11.643858 31.119657 -22.824708 -6.431800 21.454613 2.730962 -2.997830 49.074407 -10.418310 13.626629 -1.057811 -2.770167 -8.603130 0.000000 0.000000 0.000000 -2.390619 -18.700257 12.915461 20.479921 1.870832 -8.501223 5.155698 -3.453501 -2.147785 0.021525 -0.135287 -0.101439 0.000000 0.000000 0.000000 6.032061 -1.086189 0.672943 -18.817390 -11.113108 11.459062 -43.929195 -72.005289 -33.328635 0.000000 0.000000 0.000000 -2.149345 -0.576256 -5.170723 3.902880 -1.506002 8.057467 -1.591716 3.324240 1.366575 48.538756 39.999883 -73.302744 85.636871 -75.859032 67.453227 0.000000 0.000000 0.000000 4.974933 -1.839085 -3.718026 4.303884 0.332834 -13.721955 -30.498304 -3.503511 -0.123415 11.703564 -1.325832 43.541927 -164.721446 45.574755 166.894894 0.000000 0.000000 0.000000 
9.714866 30.663740 28.455982 0.000000 0.000000 0.000000 -4.319695 -40.803373 17.072941 -46.021893 11.706633 10.655607 16.045608 29.963852 -6.233291 41.162890 4.397821 28.350018 10.012759 4.204564 9.777502 0.000000 0.000000 0.000000 -6.773831 -42.256915 15.956041 27.947235 -22.436208 -5.876331 35.265134 -0.916389 0.792282 54.775569 -6.226987 10.984805 -11.446197 -0.875834 -12.775858 0.000000 0.000000 0.000000 -5.110526 -27.084453 17.593196 20.592211 2.279061 -9.383318 4.826308 -3.805048 -4.521261 -0.196861 -0.177764 -0.012311 0.000000 0.000000 0.000000 6.011031 -1.382781 -2.160175 -18.499805 -7.962814 9.852766 -33.293159 -66.791566 -19.437212 0.000000 0.000000 0.000000 -1.843851 -0.715992 -7.717239 3.303106 1.167087 4.849366 0.814645 1.879235 1.566340 50.626646 43.802587 -70.808025 47.077653 -65.188425 28.004735 0.000000 0.000000 0.000000 4.976545 -2.139326 -5.995815 3.993710 1.148487 -17.140898 -28.023464 -3.849203 2.615656 19.009984 -0.578710 45.413272 -170.790069 41.933448 172.586736 0.000000 0.000000 0.000000 
10.858302 27.035889 37.634598 0.000000 0.000000 0.000000 -3.296253 -50.094950 22.199165 -53.430698 11.880288 4.953833 15.693758 31.206755 4.699139 50.305720 2.295291 17.152955 8.170317 4.992876 12.969230 0.000000 0.000000 0.000000 -3.135212 -50.109300 21.772331 17.819041 -21.502190 -5.584615 57.622775 -4.595186 6.572840 56.421713 -4.096987 8.249181 -11.797116 0.239885 -20.671014 0.000000 0.000000 0.000000 -7.184083 -36.329120 22.168859 21.401180 1.678572 -9.812651 4.902877 -4.294570 -6.629226 -0.291550 -0.000164 0.056398 0.000000 0.000000 0.000000 5.724195 -1.921922 -4.752691 -18.182242 -4.045882 8.213583 -21.757171 -58.859360 -5.354953 0.000000 0.000000 0.000000 -1.257484 -1.255209 -9.732319 2.884653 3.476474 0.686506 3.469995 0.531647 0.052027 49.522594 45.036601 -67.616673 38.290853 -53.540289 17.682827 0.000000 0.000000 0.000000 5.566337 -2.769671 -7.843789 4.042950 2.422952 -17.631370 -26.073952 -5.173183 6.855974 24.455991 0.112117 48.580564 -173.586826 42.171606 175.625187 0.000000 0.000000 0.000000 
